# AST/ASF file generated using VICON BodyLanguage
# -----------------------------------------------
:version 1.10
:name VICON
:units
  mass 1.0
  length 0.45
  angle deg
:documentation
   .ast/.asf automatically generated from VICON data using
   VICON BodyBuilder and BodyLanguage model FoxedUp or BRILLIANT.MOD
:root
   order TX TY TZ RX RY RZ
   axis XYZ
   position 0 0 0  
   orientation 0 0 0 
:bonedata
  begin
     id 1 
     name lhipjoint
     direction 0.78388 -0.462562 0.414208 
     length 3.01181 
     axis 0 0 0  XYZ
  end
  begin
     id 2 
     name lfemur
     direction 0.34202 -0.939693 0  
     length 6.04673  
     axis 0 0 20  XYZ
    dof rx ry rz
    limits (-160.0 20.0)
           (-70.0 70.0)
           (-60.0 70.0)
  end
  begin
     id 3 
     name ltibia
     direction 0.34202 -0.939693 0   
     length 7.211   
     axis 0 0 20   XYZ
    dof rx
    limits (-10.0 170.0)
  end
  begin
     id 4 
     name lfoot
     direction 0.121887 -0.334882 0.934344   
     length 2.13567   
     axis -90 7.62852e-016 20   XYZ
    dof rx rz
    limits (-45.0 90.0)
           (-70.0 20.0)
  end
  begin
     id 5 
     name ltoes
     direction 1.53555e-011 -4.2179e-011 1   
     length 1.05957   
     axis -90 7.62852e-016 20   XYZ
    dof rx
    limits (-90.0 20.0)
  end
  begin
     id 6 
     name rhipjoint
     direction -0.769387 -0.475875 0.426129   
     length 2.92756  
     axis 0 0 0  XYZ 
  end
  begin
     id 7 
     name rfemur
     direction -0.34202 -0.939693 0   
     length 6.35468   
     axis 0 0 -20   XYZ
    dof rx ry rz
    limits (-160.0 20.0)
           (-70.0 70.0)
           (-70.0 60.0)
  end
  begin
     id 8 
     name rtibia
     direction -0.34202 -0.939693 0   
     length 7.37886   
     axis 0 0 -20   XYZ
    dof rx
    limits (-10.0 170.0)
 end
 begin
     id 9 
     name rfoot
     direction -0.101763 -0.279592 0.954711   
     length 2.21478  
     axis -90 -7.62852e-016 -20   XYZ
    dof rx rz
    limits (-45.0 90.0)
           (-20.0 70.0)
  end
  begin
     id 10 
     name rtoes
     direction -1.53494e-011 -4.21851e-011 1   
     length 1.10506   
     axis -90 -7.62852e-016 -20   XYZ
    dof rx
    limits (-90.0 20.0)
  end
  begin
     id 11 
     name lowerback
     direction 0.00747405 0.999267 0.0375481   
     length 2.13259   
     axis 0 0 0   XYZ
    dof rx ry rz
    limits (-20.0 45.0)
           (-30.0 30.0)
           (-30.0 30.0)
  end
  begin
     id 12 
     name upperback
     direction 0.00661626 0.996177 0.0871029   
     length 2.10528   
     axis 0 0 0   XYZ
    dof rx ry rz
    limits (-20.0 45.0)
           (-30.0 30.0)
           (-30.0 30.0)
  end
  begin
     id 13 
     name thorax
     direction 0.00320659 0.997679 0.0680167   
     length 2.11338   
     axis 0 0 0   XYZ
    dof rx ry rz
    limits (-20.0 45.0)
           (-30.0 30.0)
           (-30.0 30.0)
  end
  begin
     id 14 
     name lowerneck
     direction 0.0374841 0.973033 0.227602   
     length 1.42765   
     axis 0 0 0   XYZ
    dof rx ry rz
    limits (-20.0 45.0)
           (-30.0 30.0)
           (-30.0 30.0)
  end
  begin
     id 15 
     name upperneck
     direction 0.00481585 0.989155 -0.146795   
     length 1.47593   
     axis 0 0 0   XYZ
    dof rx ry rz
    limits (-20.0 45.0)
           (-30.0 30.0)
           (-30.0 30.0)
  end
  begin
     id 16
     name head
     direction -0.00292522 0.997206 -0.0746423  
     length 1.48116  
     axis 0 0 0   XYZ
    dof rx ry rz
    limits (-20.0 45.0)
           (-30.0 30.0)
           (-30.0 30.0)
  end
  begin
     id 17 
     name lclavicle
     direction 0.951444 0.305606 0.0368784  
     length 3.01855  
     axis 0 0 0   XYZ
    dof ry rz
    limits (-20.0 10.0)
           (0.0 20.0)
  end
  begin
     id 18 
     name lhumerus
     direction 1 -4.48977e-011 2.61664e-027   
     length 5.52731   
     axis 180 -30 -90   XYZ
    dof rx ry rz
    limits (-60.0 90.0)
           (-90.0 90.0)
           (-90.0 90.0)
  end
  begin
     id 19
     name lradius
     direction 1 -4.48944e-011 8.22157e-027   
     length 3.11059   
     axis 180 -30 -90   XYZ
    dof rx
    limits (-10.0 170.0)
  end
  begin
     id 20
     name lwrist
     direction 1 -4.48976e-011 1.5779e-026   
     length 1.5553   
     axis -1.15221e-014 90 90   XYZ
    dof ry
    limits (-180.0 0.0)
 end
  begin
     id 21 
     name lhand
     direction 1 -4.49025e-011 3.1558e-026   
     length 0.419626   
     axis -2.01367e-014 90 90   XYZ
    dof rx rz
    limits (-90.0 90.0)
           (-45.0 45.0)
  end
  begin
     id 22 
     name lfingers
     direction 1 -4.4904e-011 6.31161e-026   
     length 0.338313   
     axis -4.02734e-014 90 90   XYZ
    dof rx
    limits (0.0 90.0)
  end
  begin
     id 23
     name lthumb
     direction 0.707107 -6.35004e-011 0.707107   
     length 0.485752   
     axis -90 45 2.85299e-015   XYZ
    dof rx rz
    limits (-45.0 45.0)
           (-45.0 45.0)
  end
  begin
     id 24 
     name rclavicle
     direction -0.968876 0.223791 0.105816   
     length 3.04177  
     axis 0 0 0   XYZ 
    dof ry rz
    limits (-10.0 20.0)
           (-20.0 0.0)
  end
  begin
     id 25 
     name rhumerus
     direction -1 -4.48962e-011 -1.01384e-027  
     length 5.25396   
     axis 180 30 90   XYZ
    dof rx ry rz
    limits (-90.0 60.0)
           (-90.0 90.0)
           (-90.0 90.0)
  end
  begin
     id 26 
     name rradius
     direction -1 -4.48955e-011 8.88542e-027   
     length 3.10567   
     axis 180 30 90   XYZ
    dof rx
    limits (-10.0 170.0)
  end
  begin
     id 27 
     name rwrist
     direction -1 -4.48994e-011 1.5779e-026   
     length 1.55283   
     axis -1.15221e-014 -90 -90   XYZ
    dof ry
    limits (-180.0 0.0)
  end
  begin
     id 28
     name rhand
     direction -1 -4.48891e-011 3.1558e-026   
     length 0.498676   
     axis -2.01367e-014 -90 -90   XYZ
    dof rx rz
    limits (-90.0 90.0)
           (-45.0 45.0)
  end
  begin
     id 29
     name rfingers
     direction -1 -4.48972e-011 6.31161e-026   
     length 0.402045   
     axis -4.02734e-014 -90 -90   XYZ
    dof rx
    limits (0.0 90.0)
  end
  begin
     id 30
     name rthumb
     direction -0.707107 -6.34849e-011 0.707107   
     length 0.577259   
     axis -90 -45 -2.85299e-015   XYZ
    dof rx rz
    limits (-45.0 45.0)
           (-45.0 45.0)
  end
:hierarchy
  begin
    root lhipjoint rhipjoint lowerback
    lhipjoint lfemur
    lfemur ltibia
    ltibia lfoot
    lfoot ltoes
    rhipjoint rfemur
    rfemur rtibia
    rtibia rfoot
    rfoot rtoes
    lowerback upperback
    upperback thorax
    thorax lowerneck lclavicle rclavicle
    lowerneck upperneck
    upperneck head
    lclavicle lhumerus
    lhumerus lradius
    lradius lwrist
    lwrist lhand lthumb
    lhand lfingers
    rclavicle rhumerus
    rhumerus rradius
    rradius rwrist
    rwrist rhand rthumb
    rhand rfingers
  end

#!OML:ASF H:\Pregnant\Project 1\Capture day 1\Session 1\femalepreg.ASF
:FULLY-SPECIFIED
:DEGREES
74
root 3.7541 9.94373 3.4774 3.76908 -4.64453 -4.11673
lowerback -6.47829 0.559354 5.50633
upperback 8.18047 -0.230805 2.63099
thorax 12.5474 0.235313 -0.251859
lowerneck -35.8548 11.6795 10.3614
upperneck 13.5084 14.0899 -13.6138
head 11.8858 5.1293 -3.89201
rclavicle -4.96962e-015 -1.74931e-014
rhumerus -86.6449 52.0161 -107.445
rradius 74.5288
rwrist -12.1611
rhand -62.284 -85.1045
rfingers 7.12502
rthumb -34.3234 -248.184
lclavicle -4.96962e-015 -1.74931e-014
lhumerus -71.0742 -38.7018 99.2105
lradius 62.6038
lwrist 28.0196
lhand -62.0886 93.2863
lfingers 7.12502
lthumb -34.1378 -66.5332
rfemur -92.5042 -8.57001 23.147
rtibia 91.6229
rfoot -0.796665 1.05692
rtoes -4.02581
lfemur -92.6868 12.9021 -16.3251
ltibia 86.9358
lfoot 3.78573 -7.29136
ltoes -11.5142
75
root 3.74997 9.95425 3.49722 3.88906 -4.63134 -4.14732
lowerback -6.3736 0.587073 5.49069
upperback 8.14541 -0.184086 2.66144
thorax 12.4437 0.25221 -0.204157
lowerneck -36.1745 11.6465 10.2547
upperneck 13.4436 14.0312 -13.5424
head 11.8856 5.0943 -3.85863
rclavicle -3.37934e-015 5.56597e-015
rhumerus -86.8701 51.824 -107.773
rradius 74.19
rwrist -11.9144
rhand -62.2619 -86.6812
rfingers 7.12502
rthumb -34.3024 -246.603
lclavicle -3.37934e-015 5.56597e-015
lhumerus -71.0655 -38.6148 99.3925
lradius 62.2134
lwrist 27.7808
lhand -62.1019 93.9528
lfingers 7.12502
lthumb -34.1505 -67.2026
rfemur -92.5398 -8.68712 23.2593
rtibia 91.6816
rfoot -1.08261 1.09874
rtoes -4.26547
lfemur -92.7536 13.0452 -16.377
ltibia 87.0064
lfoot 3.63647 -7.44037
ltoes -11.7461
76
root 3.74605 9.96457 3.51694 3.97432 -4.62331 -4.17569
lowerback -6.24742 0.618169 5.47988
upperback 8.11594 -0.131288 2.68542
thorax 12.3337 0.272878 -0.165517
lowerneck -36.4874 11.6112 10.1464
upperneck 13.3888 13.9689 -13.4562
head 11.8859 5.05978 -3.82052
rclavicle -2.78299e-015 -2.54444e-014
rhumerus -87.0397 51.5997 -108.056
rradius 73.8378
rwrist -11.6598
rhand -62.2327 -88.1203
rfingers 7.12502
rthumb -34.2747 -245.157
lclavicle -2.78299e-015 -2.54444e-014
lhumerus -71.0337 -38.4998 99.5407
lradius 61.8255
lwrist 27.5169
lhand -62.1083 94.5486
lfingers 7.12502
lthumb -34.1565 -67.7997
rfemur -92.5355 -8.80338 23.3639
rtibia 91.7406
rfoot -1.38467 1.14568
rtoes -4.5452
lfemur -92.7795 13.1853 -16.4188
ltibia 87.0761
lfoot 3.48668 -7.57861
ltoes -11.9774
77
root 3.74243 9.97466 3.53646 4.02697 -4.61973 -4.20338
lowerback -6.10037 0.652043 5.47426
upperback 8.09171 -0.0734511 2.70441
thorax 12.2172 0.296754 -0.134749
lowerneck -36.7941 11.5733 10.0367
upperneck 13.3426 13.9033 -13.358
head 11.8865 5.02545 -3.77867
rclavicle -3.18055e-015 -7.15625e-015
rhumerus -87.1538 51.3425 -108.29
rradius 73.4719
rwrist -11.3964
rhand -62.2008 -89.439
rfingers 7.12502
rthumb -34.2444 -243.832
lclavicle -3.18055e-015 -7.15625e-015
lhumerus -70.9807 -38.358 99.6594
lradius 61.4387
lwrist 27.2329
lhand -62.1104 95.0968
lfingers 7.12502
lthumb -34.1586 -68.3484
rfemur -92.4928 -8.91788 23.4607
rtibia 91.7984
rfoot -1.68969 1.19676
rtoes -4.82688
lfemur -92.7693 13.3212 -16.4492
ltibia 87.1453
lfoot 3.3425 -7.70701
ltoes -12.1848
78
root 3.73916 9.9847 3.55604 4.05539 -4.62236 -4.22793
lowerback -5.94544 0.689376 5.47398
upperback 8.07079 -0.0103732 2.7162
thorax 12.1001 0.324137 -0.114241
lowerneck -37.0906 11.5354 9.93692
upperneck 13.3036 13.8354 -13.2594
head 11.8887 4.99114 -3.73897
rclavicle 1.07344e-014 -1.03368e-014
rhumerus -87.2201 51.0556 -108.486
rradius 73.0935
rwrist -11.1235
rhand -62.1646 -269.348
rfingers 7.12502
rthumb -34.21 -242.611
lclavicle 1.07344e-014 -1.03368e-014
lhumerus -70.9124 -38.2005 99.7524
lradius 61.0576
lwrist 26.9423
lhand -62.1101 95.5647
lfingers 7.12502
lthumb -34.1583 -68.8162
rfemur -92.4207 -9.02801 23.5467
rtibia 91.8557
rfoot -1.98983 1.2556
rtoes -5.07793
lfemur -92.7284 13.4531 -16.4725
ltibia 87.2147
lfoot 3.19833 -7.82891
ltoes -12.3853
